<svg width="36" height="36" viewBox="0 0 36 36" fill="none" xmlns="http://www.w3.org/2000/svg">
    <path d="M25.8125 17.5536C25.6935 17.8512 25.4703 18 25.1429 18H20.8572V25.8572C20.8572 26.0655 20.7902 26.2366 20.6563 26.3706C20.5224 26.5045 20.3512 26.5715 20.1429 26.5715H15.8572C15.6488 26.5715 15.4777 26.5045 15.3438 26.3706C15.2099 26.2366 15.1429 26.0655 15.1429 25.8572V18H10.8572C10.6488 18 10.4777 17.9331 10.3438 17.7991C10.2099 17.6652 10.1429 17.4941 10.1429 17.2857C10.1429 17.1072 10.2173 16.9286 10.3661 16.75L17.4866 9.6295C17.6503 9.49557 17.8215 9.42861 18 9.42861C18.1786 9.42861 18.3497 9.49557 18.5134 9.6295L25.6563 16.7724C25.8795 17.0105 25.9316 17.2709 25.8125 17.5536ZM18 5.85718C15.7977 5.85718 13.7664 6.40033 11.9063 7.48664C10.0462 8.57295 8.57295 10.0462 7.48664 11.9063C6.40033 13.7664 5.85718 15.7977 5.85718 18C5.85718 20.2024 6.40033 22.2337 7.48664 24.0938C8.57295 25.9539 10.0462 27.4271 11.9063 28.5134C13.7664 29.5997 15.7977 30.1429 18 30.1429C20.2024 30.1429 22.2337 29.5997 24.0938 28.5134C25.9539 27.4271 27.4271 25.9539 28.5134 24.0938C29.5997 22.2337 30.1429 20.2024 30.1429 18C30.1429 15.7977 29.5997 13.7664 28.5134 11.9063C27.4271 10.0462 25.9539 8.57295 24.0938 7.48664C22.2337 6.40033 20.2024 5.85718 18 5.85718ZM35.1429 18C35.1429 21.1102 34.3765 23.9785 32.8438 26.6049C31.311 29.2314 29.2314 31.311 26.6049 32.8438C23.9785 34.3765 21.1102 35.1429 18 35.1429C14.8899 35.1429 12.0216 34.3765 9.39512 32.8438C6.76864 31.311 4.68902 29.2314 3.15628 26.6049C1.62355 23.9785 0.857178 21.1102 0.857178 18C0.857178 14.8899 1.62355 12.0216 3.15628 9.39512C4.68902 6.76864 6.76864 4.68902 9.39512 3.15628C12.0216 1.62355 14.8899 0.857178 18 0.857178C21.1102 0.857178 23.9785 1.62355 26.6049 3.15628C29.2314 4.68902 31.311 6.76864 32.8438 9.39512C34.3765 12.0216 35.1429 14.8899 35.1429 18Z" fill="#FFFCDD"/>
</svg>
